<svg xmlns="http://www.w3.org/2000/svg" version="1.1" xmlns:xlink="http://www.w3.org/1999/xlink" xmlns:svgjs="http://svgjs.dev/svgjs" width="1500" height="1500" viewBox="0 0 1500 1500"><rect width="1500" height="1500" fill="#ffffff"></rect><g transform="matrix(0.6666666666666666,0,0,0.6666666666666666,249.39393939393938,628.038247910869)"><svg viewBox="0 0 396 97" data-background-color="#ffffff" preserveAspectRatio="xMidYMid meet" height="367" width="1500" xmlns="http://www.w3.org/2000/svg" xmlns:xlink="http://www.w3.org/1999/xlink"><g id="tight-bounds" transform="matrix(1,0,0,1,0.2400000000000091,-0.14731626984041668)"><svg viewBox="0 0 395.52 97.29463253968085" height="97.29463253968085" width="395.52"><g><svg viewBox="0 0 555.51535488 136.65216" height="97.29463253968085" width="395.52"><g transform="matrix(1,0,0,1,0,18.886080000000007)"><svg viewBox="0 0 395.52 98.88" height="98.88" width="395.52"><g id="textblocktransform"><svg viewBox="0 0 395.52 98.88" height="98.88" width="395.52" id="textblock"><g><svg viewBox="0 0 395.52 98.88" height="98.88" width="395.52"><g transform="matrix(1,0,0,1,0,0)"><svg width="395.52" viewBox="4.45 -36.5 147.99 37" height="98.88" data-palette-color="#111111"><path d="M4.45-36.5L8.45-36.5 8.45-6.35Q8.45-4.45 9.15-3.73 9.85-3 11.4-3L11.4-3Q12.4-3 13.05-3.15 13.7-3.3 14.8-3.7L14.8-3.7 14.15-0.2Q13.35 0.15 12.4 0.33 11.45 0.5 10.45 0.5L10.45 0.5Q7.4 0.5 5.93-1.15 4.45-2.8 4.45-6.2L4.45-6.2 4.45-36.5ZM30.4 0.5L30.4 0.5Q26.85 0.5 24.07-1.05 21.3-2.6 19.75-5.53 18.2-8.45 18.2-12.5L18.2-12.5Q18.2-16.55 19.75-19.48 21.3-22.4 24-23.95 26.7-25.5 30.15-25.5L30.15-25.5Q33.65-25.5 36.12-24 38.6-22.5 39.9-19.93 41.2-17.35 41.2-14.15L41.2-14.15Q41.2-13.3 41.15-12.6 41.1-11.9 41-11.35L41-11.35 20.8-11.35 20.8-14.9 39.25-14.9 37.2-14.5Q37.2-18.1 35.22-20.05 33.25-22 30.05-22L30.05-22Q27.6-22 25.82-20.88 24.05-19.75 23.07-17.63 22.1-15.5 22.1-12.5L22.1-12.5Q22.1-9.55 23.1-7.4 24.1-5.25 25.92-4.13 27.75-3 30.3-3L30.3-3Q33.05-3 34.77-4.05 36.5-5.1 37.55-6.9L37.55-6.9 40.7-5.05Q39.75-3.35 38.27-2.1 36.8-0.85 34.82-0.18 32.85 0.5 30.4 0.5ZM61.05 0.5L61.05 0.5Q58.95 0.5 57.15-0.25 55.35-1 54.05-2.35 52.75-3.7 52.1-5.4L52.1-5.4 52.65-6.1 52.3 0 48.8 0 48.8-36.5 52.8-36.5 52.8-19.35 52.3-20.1Q53.3-22.45 55.67-23.98 58.05-25.5 61.09-25.5L61.09-25.5Q64.2-25.5 66.8-23.95 69.4-22.4 70.95-19.5 72.5-16.6 72.5-12.5L72.5-12.5Q72.5-8.45 70.92-5.53 69.34-2.6 66.75-1.05 64.15 0.5 61.05 0.5ZM60.65-3L60.65-3Q64.34-3 66.42-5.6 68.5-8.2 68.5-12.5L68.5-12.5Q68.5-16.8 66.45-19.4 64.4-22 60.7-22L60.7-22Q58.35-22 56.57-20.8 54.8-19.6 53.8-17.45 52.8-15.3 52.8-12.4L52.8-12.4Q52.8-9.55 53.77-7.43 54.75-5.3 56.52-4.15 58.3-3 60.65-3ZM84.14 0L80.14 0 80.14-25 83.39-25 83.94-20.9Q84.99-23.2 87.02-24.35 89.04-25.5 91.94-25.5L91.94-25.5Q92.59-25.5 93.37-25.4 94.14-25.3 94.69-25L94.69-25 93.99-21.35Q93.44-21.55 92.79-21.65 92.14-21.75 90.94-21.75L90.94-21.75Q89.39-21.75 87.82-20.85 86.24-19.95 85.19-18.13 84.14-16.3 84.14-13.5L84.14-13.5 84.14 0ZM110.89-25.5L110.89-25.5Q114.44-25.5 117.17-23.95 119.89-22.4 121.44-19.48 122.99-16.55 122.99-12.5L122.99-12.5Q122.99-8.45 121.44-5.53 119.89-2.6 117.17-1.05 114.44 0.5 110.89 0.5L110.89 0.5Q107.39 0.5 104.64-1.05 101.89-2.6 100.34-5.53 98.79-8.45 98.79-12.5L98.79-12.5Q98.79-16.55 100.34-19.48 101.89-22.4 104.64-23.95 107.39-25.5 110.89-25.5ZM110.89-22.05L110.89-22.05Q108.34-22.05 106.54-20.9 104.74-19.75 103.77-17.63 102.79-15.5 102.79-12.5L102.79-12.5Q102.79-9.55 103.77-7.4 104.74-5.25 106.54-4.1 108.34-2.95 110.89-2.95L110.89-2.95Q113.44-2.95 115.24-4.1 117.04-5.25 118.02-7.4 118.99-9.55 118.99-12.5L118.99-12.5Q118.99-15.5 118.02-17.63 117.04-19.75 115.24-20.9 113.44-22.05 110.89-22.05ZM134.54 0L130.54 0 130.54-25 134.04-25 134.39-19.4 133.74-19.95Q134.54-21.95 135.89-23.18 137.24-24.4 139.01-24.95 140.79-25.5 142.69-25.5L142.69-25.5Q145.39-25.5 147.59-24.48 149.79-23.45 151.11-21.35 152.44-19.25 152.44-16L152.44-16 152.44 0 148.44 0 148.44-14.6Q148.44-18.75 146.66-20.38 144.89-22 142.29-22L142.29-22Q140.49-22 138.69-21.15 136.89-20.3 135.71-18.4 134.54-16.5 134.54-13.3L134.54-13.3 134.54 0Z" opacity="1" transform="matrix(1,0,0,1,0,0)" fill="#000000" class="wordmark-text-0" data-fill-palette-color="primary" id="text-0"></path></svg></g></svg></g></svg></g></svg></g><g transform="matrix(1,0,0,1,418.86319488,0)"><svg viewBox="0 0 136.65216 136.65216" height="136.65216" width="136.65216"><g data-palette-color="#b10dc9"><rect width="37.3515904" height="136.65216" fill="#000000" stroke="transparent" data-fill-palette-color="accent" x="0" fill-opacity="1"></rect><rect width="37.3515904" height="136.65216" fill="#000000" stroke="transparent" data-fill-palette-color="accent" x="45.55072" fill-opacity="0.75"></rect><rect width="37.3515904" height="136.65216" fill="#000000" stroke="transparent" data-fill-palette-color="accent" x="91.10144" fill-opacity="0.5"></rect></g></svg></g></svg></g><defs></defs></svg><rect width="395.52" height="97.29463253968085" fill="none" stroke="none" visibility="hidden"></rect></g></svg></g></svg>